Coordinates
version=1
nRows=17
nColumns=38
inDegrees=no

Units are S.I. units (second, meters, Newtons, ...)
If the header above contains a line with 'inDegrees', this indicates whether rotational values are in degrees (yes) or radians (no).

endheader
time	pelvis_tilt	pelvis_list	pelvis_rotation	pelvis_tx	pelvis_ty	pelvis_tz	hip_flexion_r	hip_adduction_r	hip_rotation_r	knee_angle_r	ankle_angle_r	subtalar_angle_r	mtp_angle_r	hip_flexion_l	hip_adduction_l	hip_rotation_l	knee_angle_l	ankle_angle_l	subtalar_angle_l	mtp_angle_l	lumbar_extension	lumbar_bending	lumbar_rotation	arm_flex_r	arm_add_r	arm_rot_r	elbow_flex_r	pro_sup_r	wrist_flex_r	wrist_dev_r	arm_flex_l	arm_add_l	arm_rot_l	elbow_flex_l	pro_sup_l	wrist_flex_l	wrist_dev_l
1.42	-2.97405	1.43291	-1.76238	0.649461	1.55363	1.05966	0.363191	-0.0465014	0.0177848	0.843423	-0.108569	0	0	-0.216528	0.0751102	-0.217011	0.292317	-0.135943	0	0	-0.24451	0.000569691	-0.194594	-0.163559	-0.297872	0.243713	0.534061	0.0956295	0	0	-0.225253	-0.719214	0.257155	0.923612	1.2148	0	0
1.43	-2.96365	1.43738	-1.77282	0.649868	1.56392	1.05826	0.374444	-0.051227	0.00243858	0.797234	-0.105225	0	0	-0.225211	0.0756511	-0.213701	0.286624	-0.132506	0	0	-0.241816	0.00271945	-0.190988	-0.169145	-0.298949	0.23307	0.543475	0.0972148	0	0	-0.209306	-0.73018	0.270821	0.931686	1.21292	0	0
1.44	-2.94967	1.44303	-1.78519	0.650064	1.57424	1.05677	0.386134	-0.0563666	-0.0159653	0.751676	-0.102873	0	0	-0.231766	0.076533	-0.211132	0.28239	-0.129187	0	0	-0.236332	0.0039735	-0.191215	-0.168422	-0.3058	0.25435	0.548483	0.0763361	0	0	-0.200393	-0.736999	0.270308	0.939247	1.22072	0	0
1.45	-2.93518	1.44745	-1.79726	0.650244	1.58458	1.05526	0.3958	-0.0614766	-0.037645	0.707248	-0.100883	0	0	-0.239727	0.0774955	-0.206559	0.277884	-0.125462	0	0	-0.232757	0.0055813	-0.190309	-0.171484	-0.309148	0.256463	0.556407	0.0686425	0	0	-0.186704	-0.746166	0.280274	0.945673	1.22342	0	0
1.46	-2.91825	1.45161	-1.81074	0.650407	1.59493	1.05368	0.404486	-0.0668182	-0.0619468	0.665333	-0.0994621	0	0	-0.247217	0.0780906	-0.201834	0.274883	-0.121763	0	0	-0.22933	0.00709184	-0.190306	-0.174627	-0.311811	0.256642	0.563834	0.0634547	0	0	-0.172501	-0.754765	0.291272	0.950951	1.22469	0	0
1.47	-2.9003	1.45548	-1.82433	0.650591	1.60534	1.05206	0.411495	-0.0722569	-0.0874495	0.625362	-0.0985665	0	0	-0.254305	0.0780157	-0.197783	0.273454	-0.118017	0	0	-0.226055	0.00859798	-0.191022	-0.177802	-0.313583	0.254567	0.570446	0.060168	0	0	-0.157945	-0.76278	0.303176	0.95513	1.22534	0	0
1.48	-2.88703	1.45872	-1.83219	0.650747	1.61571	1.05048	0.415499	-0.0774726	-0.112717	0.586905	-0.0988706	0	0	-0.261399	0.0772481	-0.193637	0.273322	-0.113632	0	0	-0.224718	0.0109643	-0.187887	-0.191477	-0.28981	0.156124	0.576356	0.145383	0	0	-0.133756	-0.774565	0.332332	0.957469	1.21768	0	0
1.49	-2.86781	1.46112	-1.84526	0.651146	1.62629	1.04877	0.420241	-0.0839456	-0.139825	0.557472	-0.094737	0	0	-0.269236	0.0751618	-0.190252	0.275034	-0.108173	0	0	-0.223828	0.0129723	-0.187999	-0.19969	-0.281437	0.118657	0.583947	0.174816	0	0	-0.110071	-0.787068	0.366621	0.959721	1.20279	0	0
1.5	-2.85415	1.46359	-1.85207	0.651528	1.63687	1.0471	0.423282	-0.0890764	-0.162171	0.532118	-0.0885715	0	0	-0.276327	0.0724313	-0.187824	0.277777	-0.103978	0	0	-0.222042	0.0150701	-0.190782	-0.203259	-0.279386	0.108926	0.589267	0.181367	0	0	-0.0947924	-0.793841	0.381747	0.961622	1.2007	0	0
1.51	-2.84628	1.46524	-1.85259	0.651951	1.64746	1.04557	0.424037	-0.0925357	-0.180189	0.509857	-0.0814685	0	0	-0.283981	0.0689132	-0.18573	0.281335	-0.100123	0	0	-0.221427	0.0177315	-0.194119	-0.206014	-0.277339	0.10007	0.593815	0.187154	0	0	-0.0798739	-0.799326	0.396112	0.962472	1.1987	0	0
1.52	-2.84525	1.46583	-1.84608	0.652428	1.65811	1.04421	0.422261	-0.0942415	-0.194133	0.490727	-0.0752121	0	0	-0.292486	0.0647784	-0.183848	0.285719	-0.0964629	0	0	-0.222234	0.0209396	-0.197656	-0.208455	-0.275538	0.0921424	0.598199	0.19213	0	0	-0.0653691	-0.803431	0.409546	0.962234	1.19702	0	0
1.53	-2.84692	1.46608	-1.83702	0.65297	1.66883	1.04291	0.419271	-0.0946694	-0.202994	0.476528	-0.0714791	0	0	-0.30092	0.060405	-0.182206	0.291003	-0.0938704	0	0	-0.223356	0.02429	-0.201517	-0.210509	-0.274198	0.0860073	0.602254	0.195449	0	0	-0.0529885	-0.806009	0.419962	0.961524	1.19588	0	0
1.54	-2.85651	1.46656	-1.8206	0.653459	1.67958	1.04169	0.415513	-0.0938404	-0.207361	0.467506	-0.0697729	0	0	-0.308492	0.0559154	-0.180999	0.29751	-0.0922629	0	0	-0.223731	0.0279146	-0.205294	-0.212029	-0.273041	0.0810947	0.605347	0.198417	0	0	-0.0434102	-0.807693	0.427253	0.96048	1.19521	0	0
1.55	-2.87265	1.46489	-1.79794	0.654233	1.69048	1.04053	0.408364	-0.0913691	-0.209294	0.461882	-0.0711455	0	0	-0.31755	0.0488883	-0.184773	0.307134	-0.0883941	0	0	-0.228519	0.0338111	-0.206176	-0.218793	-0.26891	0.0582995	0.615016	0.213371	0	0	-0.0257997	-0.811138	0.451508	0.959333	1.18442	0	0
1.56	-2.89085	1.46485	-1.7747	0.655178	1.70162	1.03936	0.402419	-0.0874956	-0.207365	0.461934	-0.0730154	0	0	-0.32471	0.042379	-0.187193	0.316944	-0.0864553	0	0	-0.229957	0.0388162	-0.208209	-0.222391	-0.268762	0.0539704	0.620335	0.216711	0	0	-0.0192163	-0.810496	0.45712	0.958654	1.18303	0	0
1.57	-2.91065	1.46503	-1.75115	0.656405	1.71303	1.03822	0.396315	-0.0823316	-0.203389	0.466851	-0.0756804	0	0	-0.331485	0.0357448	-0.189546	0.327572	-0.0850917	0	0	-0.230795	0.043642	-0.209555	-0.226462	-0.268698	0.050044	0.62533	0.220135	0	0	-0.0161859	-0.809378	0.46006	0.958792	1.18187	0	0
1.58	-2.92628	1.46539	-1.73296	0.657865	1.72468	1.03707	0.390105	-0.0765811	-0.198193	0.475674	-0.0784676	0	0	-0.337843	0.0296485	-0.191534	0.33864	-0.0846333	0	0	-0.230916	0.0476806	-0.210417	-0.230612	-0.268321	0.0459568	0.629516	0.223086	0	0	-0.01666	-0.808079	0.460723	0.959943	1.18112	0	0
